<svg xmlns="http://www.w3.org/2000/svg" viewBox="0 0 1280 820" width="1280" height="820" role="img" aria-label="EventGo mockup">
  <defs>
    <linearGradient id="bg" x1="0" y1="0" x2="1" y2="1">
      <stop offset="0" stop-color="#0c0c14"/>
      <stop offset="1" stop-color="#11111c"/>
    </linearGradient>
    <linearGradient id="ac" x1="0" y1="0" x2="1" y2="1">
      <stop offset="0" stop-color="#d946ef"/>
      <stop offset="1" stop-color="#d946ef88"/>
    </linearGradient>
  </defs>
  <rect width="1280" height="820" fill="url(#bg)"/>
  <!-- window -->
  <rect x="72" y="66" width="1136" height="688" rx="20" fill="#15151f" stroke="#262633" stroke-width="2"/>
  <!-- title bar -->
  <path d="M72 86 a20 20 0 0 1 20 -20 h1096 a20 20 0 0 1 20 20 v40 h-1136 z" fill="#1b1b28"/>
  <circle cx="104" cy="86" r="7" fill="#ff5f57"/>
  <circle cx="128" cy="86" r="7" fill="#febc2e"/>
  <circle cx="152" cy="86" r="7" fill="#28c840"/>
  <rect x="196" y="74" width="600" height="24" rx="12" fill="#0e0e16"/>
  <text x="216" y="91" font-family="Inter,Arial,sans-serif" font-size="14" fill="#8b8b9e">Event Ticketing</text>
  <!-- sidebar -->
  <rect x="72" y="126" width="250" height="628" fill="#12121b"/>
  <rect x="100" y="158" width="44" height="44" rx="12" fill="url(#ac)"/>
  <rect x="156" y="170" width="120" height="18" rx="9" fill="#2a2a38"/>
  <rect x="100" y="238" width="150" height="14" rx="7" fill="#22222f"/>
  <rect x="100" y="284" width="132" height="14" rx="7" fill="#22222f"/>
  <rect x="100" y="330" width="114" height="14" rx="7" fill="#22222f"/>
  <rect x="100" y="376" width="150" height="14" rx="7" fill="#22222f"/>
  <rect x="100" y="422" width="132" height="14" rx="7" fill="#22222f"/>
  <rect x="100" y="468" width="114" height="14" rx="7" fill="#22222f"/>
  <!-- main header -->
  <rect x="356" y="160" width="300" height="26" rx="13" fill="#2f2f3d"/>
  <rect x="356" y="198" width="180" height="16" rx="8" fill="#22222f"/>
  <rect x="1036" y="158" width="140" height="40" rx="10" fill="url(#ac)"/>
  <!-- stat cards -->
  <g>
    <rect x="356" y="252" width="252" height="120" rx="14" fill="#181824" stroke="#262633"/>
    <rect x="380" y="276" width="80" height="12" rx="6" fill="#2a2a38"/>
    <rect x="380" y="300" width="130" height="26" rx="8" fill="url(#ac)" opacity="0.85"/>
    <rect x="380" y="340" width="180" height="10" rx="5" fill="#22222f"/>
  </g>
  <g>
    <rect x="632" y="252" width="252" height="120" rx="14" fill="#181824" stroke="#262633"/>
    <rect x="656" y="276" width="80" height="12" rx="6" fill="#2a2a38"/>
    <rect x="656" y="300" width="130" height="26" rx="8" fill="url(#ac)" opacity="0.85"/>
    <rect x="656" y="340" width="180" height="10" rx="5" fill="#22222f"/>
  </g>
  <g>
    <rect x="908" y="252" width="252" height="120" rx="14" fill="#181824" stroke="#262633"/>
    <rect x="932" y="276" width="80" height="12" rx="6" fill="#2a2a38"/>
    <rect x="932" y="300" width="130" height="26" rx="8" fill="url(#ac)" opacity="0.85"/>
    <rect x="932" y="340" width="180" height="10" rx="5" fill="#22222f"/>
  </g>
  <!-- chart -->
  <rect x="356" y="396" width="528" height="320" rx="14" fill="#181824" stroke="#262633"/>
  <rect x="380" y="420" width="120" height="14" rx="7" fill="#2a2a38"/>
  <rect x="392" y="630" width="34" height="60" rx="6" fill="url(#ac)" opacity="0.45"/>
  <rect x="452" y="577" width="34" height="113" rx="6" fill="url(#ac)" opacity="0.61"/>
  <rect x="512" y="524" width="34" height="166" rx="6" fill="url(#ac)" opacity="0.77"/>
  <rect x="572" y="471" width="34" height="219" rx="6" fill="url(#ac)" opacity="0.9299999999999999"/>
  <rect x="632" y="608" width="34" height="82" rx="6" fill="url(#ac)" opacity="0.45"/>
  <rect x="692" y="555" width="34" height="135" rx="6" fill="url(#ac)" opacity="0.61"/>
  <rect x="752" y="502" width="34" height="188" rx="6" fill="url(#ac)" opacity="0.77"/>
  <rect x="812" y="449" width="34" height="241" rx="6" fill="url(#ac)" opacity="0.9299999999999999"/>
  <!-- side panel -->
  <rect x="908" y="396" width="268" height="320" rx="14" fill="#181824" stroke="#262633"/>
  <g>
    <circle cx="940" cy="440" r="16" fill="url(#ac)" opacity="0.8"/>
    <rect x="968" y="430" width="150" height="12" rx="6" fill="#2a2a38"/>
    <rect x="968" y="450" width="100" height="10" rx="5" fill="#22222f"/>
  </g>
  <g>
    <circle cx="940" cy="508" r="16" fill="url(#ac)" opacity="0.8"/>
    <rect x="968" y="498" width="150" height="12" rx="6" fill="#2a2a38"/>
    <rect x="968" y="518" width="100" height="10" rx="5" fill="#22222f"/>
  </g>
  <g>
    <circle cx="940" cy="576" r="16" fill="url(#ac)" opacity="0.8"/>
    <rect x="968" y="566" width="150" height="12" rx="6" fill="#2a2a38"/>
    <rect x="968" y="586" width="100" height="10" rx="5" fill="#22222f"/>
  </g>
  <g>
    <circle cx="940" cy="644" r="16" fill="url(#ac)" opacity="0.8"/>
    <rect x="968" y="634" width="150" height="12" rx="6" fill="#2a2a38"/>
    <rect x="968" y="654" width="100" height="10" rx="5" fill="#22222f"/>
  </g>
  <!-- watermark -->
  <text x="640" y="790" text-anchor="middle" font-family="Inter,Arial,sans-serif" font-size="20" font-weight="700" fill="#d946ef" opacity="0.9">EventGo</text>
  <text x="1150" y="208" text-anchor="end" font-family="Inter,Arial,sans-serif" font-size="120" font-weight="800" fill="#d946ef" opacity="0.06">E</text>
</svg>